<svg id="svg" version="1.1" xmlns="http://www.w3.org/2000/svg" xmlns:xlink="http://www.w3.org/1999/xlink" width="400" height="533.4002677376171" viewBox="0, 0, 400,533.4002677376171"><g id="svgg"><path id="path0" d="M133.407 100.056 L 133.407 133.407 100.056 133.407 L 66.704 133.407 66.704 166.759 L 66.704 200.111 33.352 200.111 L 0.000 200.111 0.000 300.167 L 0.000 400.222 33.352 400.222 L 66.704 400.222 66.704 433.574 L 66.704 466.926 99.944 466.926 L 133.185 466.926 133.185 433.574 L 133.185 400.222 99.944 400.222 L 66.704 400.222 66.704 300.167 L 66.704 200.111 100.056 200.111 L 133.407 200.111 133.407 166.759 L 133.407 133.407 200.000 133.407 L 266.593 133.407 266.593 100.056 L 266.593 66.704 200.000 66.704 L 133.407 66.704 133.407 100.056 M266.815 166.759 L 266.815 200.111 300.019 200.111 L 333.222 200.111 333.371 250.176 C 333.452 277.712,333.519 322.737,333.519 350.232 L 333.519 400.222 300.167 400.222 L 266.815 400.222 266.815 433.574 L 266.815 466.926 200.111 466.926 L 133.407 466.926 133.407 500.278 L 133.407 533.630 200.111 533.630 L 266.815 533.630 266.815 500.278 L 266.815 466.926 300.167 466.926 L 333.519 466.926 333.519 433.574 L 333.519 400.222 366.759 400.222 L 400.000 400.222 400.000 300.167 L 400.000 200.111 366.759 200.111 L 333.519 200.111 333.519 166.759 L 333.519 133.407 300.167 133.407 L 266.815 133.407 266.815 166.759 " stroke="none" fill="#040404" fill-rule="evenodd"></path><path id="path1" d="M133.407 166.759 L 133.407 200.111 100.056 200.111 L 66.704 200.111 66.704 233.463 L 66.704 266.815 100.056 266.815 L 133.407 266.815 133.407 233.463 L 133.407 200.111 166.759 200.111 L 200.111 200.111 200.111 166.759 L 200.111 133.407 166.759 133.407 L 133.407 133.407 133.407 166.759 " stroke="none" fill="#fcfbfb" fill-rule="evenodd"></path><path id="path2" d="M199.889 33.352 L 199.889 66.704 233.241 66.704 L 266.593 66.704 266.593 33.352 L 266.593 0.000 233.241 0.000 L 199.889 0.000 199.889 33.352 M266.701 166.759 C 266.701 185.164,266.727 192.693,266.759 183.491 C 266.791 174.288,266.791 159.230,266.759 150.028 C 266.727 140.825,266.701 148.355,266.701 166.759 M333.406 333.519 C 333.406 370.267,333.432 385.300,333.463 366.926 C 333.494 348.552,333.494 318.485,333.463 300.111 C 333.432 281.737,333.406 296.770,333.406 333.519 M266.701 433.574 C 266.701 451.979,266.727 459.508,266.759 450.306 C 266.791 441.103,266.791 426.045,266.759 416.843 C 266.727 407.640,266.701 415.170,266.701 433.574 " stroke="none" fill="#6b3c14" fill-rule="evenodd"></path><path id="path3" d="M200.111 166.759 L 200.111 200.111 166.759 200.111 L 133.407 200.111 133.407 233.463 L 133.407 266.815 100.056 266.815 L 66.704 266.815 66.704 333.519 L 66.704 400.222 133.296 400.222 L 199.889 400.222 199.889 366.870 L 199.889 333.519 233.241 333.519 L 266.593 333.519 266.593 300.167 L 266.593 266.815 299.944 266.815 L 333.296 266.815 333.296 233.463 L 333.296 200.111 299.944 200.111 L 266.593 200.111 266.593 166.759 L 266.593 133.407 233.352 133.407 L 200.111 133.407 200.111 166.759 " stroke="none" fill="#fbdb3b" fill-rule="evenodd"></path><path id="path4" d="M266.593 300.167 L 266.593 333.519 233.241 333.519 L 199.889 333.519 199.889 366.870 L 199.889 400.222 166.537 400.222 L 133.185 400.222 133.185 433.574 L 133.185 466.926 199.889 466.926 L 266.593 466.926 266.593 433.574 L 266.593 400.222 299.944 400.222 L 333.296 400.222 333.296 333.519 L 333.296 266.815 299.944 266.815 L 266.593 266.815 266.593 300.167 " stroke="none" fill="#eca404" fill-rule="evenodd"></path><path id="path5" d="M266.593 66.704 L 266.593 133.407 333.296 133.407 L 400.000 133.407 400.000 66.704 L 400.000 0.000 333.296 0.000 L 266.593 0.000 266.593 66.704 " stroke="none" fill="#9cbc34" fill-rule="evenodd"></path></g></svg>