<svg id="Layer_1" enable-background="new 0 0 512 512" viewBox="0 0 512 512" xmlns="http://www.w3.org/2000/svg"><g><path d="m316.244 322.25v-6.016" fill="none"/><path d="m481.88 180.7v-30.12h-30.11v-60.23h-30.12v-30.12h-30.12v-30.12h-90.35v30.12h-30.12v-30.12h-30.12v-30.11h-90.35v30.11h-30.12v30.12h-30.12v30.12h-30.11v60.23h-30.12v30.12h-30.12v90.35h30.12v30.12h30.12v30.12h90.35v30.12h-30.12v60.23h-30.12v60.24h30.12v30.12h271.06v-30.12h30.12v-60.24h-30.12v-60.23h-30.12v-30.12h90.36v-30.12h30.11v-30.12h30.12v-90.35z"/><g><g id="XMLID_00000040540219477940662270000016940275306749900187_"><path d="m361.41 421.64v-60.23h-30.11v-60.24h-30.12v-60.23h-30.12v-30.12h-30.12v30.12h-30.12v60.23h-30.11v60.24h-30.12v60.23h-30.12v60.24h271.06v-60.24zm-90.35-120.47v90.35h-30.12v-90.35zm-30.12 150.59v-30.12h30.12v30.12z" fill="#ffc906"/><path d="m451.77 180.7v-30.12h-30.12v-60.23h-30.12v-30.12h-90.35v30.12h30.12v60.23h-30.12v-60.23h-30.12v-30.12h-30.12v-30.12h-90.35v30.12h-30.12v30.12h-30.12v60.23h-30.11v30.12h-30.12v90.35h30.12v30.12h120.47v-60.23h30.11v-30.12h30.12v-30.12h30.12v30.12h30.12v30.12h30.12v60.23h120.47v-30.12h30.11v-90.35z" fill="#7c8186"/></g></g><g><g id="XMLID_00000038379269424732547050000005884803786075454856_"><g fill="#474f55"><path d="m451.77 180.7v60.24h-30.12v30.11h-30.12v30.12h60.24v-30.12h30.11v-90.35z"/><path d="m421.65 150.58h30.12v30.12h-30.12z"/><path d="m421.65 90.35h-30.12v-30.12h-90.35v30.12h60.23v30.12h30.12v30.11h30.12z"/></g><g fill="#f5851f"><path d="m361.41 421.64h30.12v60.24h-30.12z"/><path d="m331.3 361.41h30.11v60.23h-30.11z"/><path d="m301.18 301.17h30.12v60.24h-30.12z"/><path d="m271.06 240.94h30.12v60.23h-30.12z"/></g></g></g></g><g/><g/><g/><g/><g/><g/><g/><g/><g/><g/><g/><g/><g/><g/><g/></svg>